<svg width="176" height="102" viewBox="0 0 176 102" fill="none" xmlns="http://www.w3.org/2000/svg">
<path d="M124.997 0.876007L136.719 0.831604V32.5361H130.059V6.20449H123.753L124.997 0.876007ZM138.052 0.831604H144.357V6.16009H138.052V0.831604Z" fill="white"/>
<path d="M121.947 6.20452H109.603V0.876038H120.66L121.947 6.20452ZM119.15 19.3481H109.603V14.0196H119.15V19.3481ZM101.61 0.876038H108.271V4.8724V32.5361H101.61V0.876038ZM109.603 27.2076H122.835L121.548 32.5361H109.603V27.2076Z" fill="white"/>
<path d="M98.2711 6.20452H85.9268V0.876038H96.9834L98.2711 6.20452ZM95.4737 19.3481H85.9268V14.0196H95.4737V19.3481ZM77.9341 0.876038H84.5947V4.8724V32.5361H77.9341V0.876038ZM85.9268 27.2076H99.1592L97.8715 32.5361H85.9268V27.2076Z" fill="white"/>
<path d="M56.4692 0.876038H63.1298V32.5361H56.4692V0.876038ZM64.462 27.2076H75.4742L74.2309 32.5361H64.462V27.2076Z" fill="white"/>
<path d="M52.753 0.876038L54.0407 6.20452H41.6963V0.876038H52.753ZM41.6963 14.0196H51.2432V19.3481H41.6963V14.0196ZM33.7036 0.876038H40.3642V4.8724V32.5361H33.7036V0.876038Z" fill="white"/>
<path d="M174.215 44.1329H161.871V38.8044H172.927L174.215 44.1329ZM171.418 57.2765H161.871V51.948H171.418V57.2765ZM153.878 38.8044H160.539V42.8008V70.4645H153.878V38.8044ZM161.871 65.136H175.103L173.815 70.4645H161.871V65.136Z" fill="white"/>
<path d="M132.322 38.8044H135.475V70.4645H132.322L128.814 66.9566V42.268L132.322 38.8044ZM147.242 38.8044L150.75 42.268V49.9943H144.045V44.1329H136.807V38.8044H147.242ZM139.515 53.6354H150.75V66.9566L147.242 70.4645H136.807V65.136H144.045V58.9639H140.759L139.515 53.6354Z" fill="white"/>
<path d="M110.855 38.8044L125.686 70.4645H118.581L103.75 38.8044H110.855ZM125.686 67.3563L119.025 53.147V38.8044H125.686V67.3563ZM103.75 41.9571L110.411 56.122V70.4645H103.75V41.9571Z" fill="white"/>
<path d="M100.411 44.1329H88.0665V38.8044H99.1231L100.411 44.1329ZM97.6133 57.2765H88.0665V51.948H97.6133V57.2765ZM80.0737 38.8044H86.7343V42.8008V70.4645H80.0737V38.8044ZM88.0665 65.136H101.299L100.011 70.4645H88.0665V65.136Z" fill="white"/>
<path d="M70.2921 38.8044H77.6188L69.8481 70.4645H67.4947L65.5853 60.6956L70.2921 38.8044ZM59.502 38.8044L66.1626 70.4645H59.946L52.1753 38.8044H59.502Z" fill="white"/>
<path d="M51.2799 44.1329H38.9356V38.8044H49.9922L51.2799 44.1329ZM48.4825 57.2765H38.9356V51.948H48.4825V57.2765ZM30.9429 38.8044H37.6035V42.8008V70.4645H30.9429V38.8044ZM38.9356 65.136H52.168L50.8803 70.4645H38.9356V65.136Z" fill="white"/>
<path d="M5.48864 45.4651H12.1493V70.4645H5.48864V45.4651ZM23.0726 57.987L27.8239 65.8021V70.4645H23.0282L16.412 57.987H13.4814V52.6585H20.7192V44.1329H0.160156L1.49228 38.8044H23.9163L27.3798 42.268V54.4791L23.9163 57.987H23.0726Z" fill="white"/>
<path d="M28.631 33.0895H1.979L28.631 1.73431V33.0895Z" fill="white"/>
<path d="M149.349 33.0895H176L149.349 1.73431V33.0895Z" fill="white"/>
<path d="M164.63 79.409H167.373L172.953 93.5829H173.033C172.998 93.1369 172.948 92.6405 172.886 92.0935C172.832 91.5382 172.783 90.8735 172.739 90.0993C172.694 89.3252 172.672 88.3828 172.672 87.2721V79.409H175.75V100.966H172.98L167.427 87.1712H167.319C167.364 87.676 167.413 88.2272 167.467 88.8246C167.52 89.422 167.569 90.1751 167.614 91.0838C167.658 91.9926 167.681 93.1748 167.681 94.6304V100.966H164.63V79.409Z" fill="white"/>
<path d="M155.584 101.156C155.031 101.156 154.425 101.08 153.764 100.929C153.113 100.777 152.493 100.462 151.904 99.9819C151.316 99.5023 150.834 98.7829 150.459 97.8237C150.085 96.856 149.897 95.5644 149.897 93.9489V86.3129C149.897 85.0171 150.022 83.9401 150.272 83.0818C150.531 82.2152 150.865 81.5252 151.275 81.0119C151.695 80.4902 152.154 80.1032 152.654 79.8507C153.162 79.5899 153.671 79.4216 154.179 79.3459C154.688 79.2617 155.156 79.2197 155.584 79.2197C155.995 79.2197 156.45 79.2575 156.949 79.3333C157.458 79.409 157.962 79.5731 158.461 79.8255C158.961 80.0695 159.416 80.4482 159.826 80.9614C160.245 81.4747 160.58 82.1647 160.83 83.0313C161.088 83.898 161.218 84.9919 161.218 86.3129V93.9489C161.218 95.5476 161.021 96.8266 160.629 97.7858C160.236 98.745 159.741 99.4686 159.144 99.9567C158.546 100.436 157.926 100.756 157.284 100.916C156.65 101.076 156.084 101.156 155.584 101.156ZM155.584 98.5936C156.271 98.5936 156.78 98.3495 157.11 97.8615C157.44 97.3735 157.605 96.4605 157.605 95.1227V85.4042C157.605 84.0242 157.44 83.0776 157.11 82.5643C156.78 82.0427 156.271 81.7818 155.584 81.7818C154.879 81.7818 154.358 82.0427 154.019 82.5643C153.689 83.0776 153.524 84.0242 153.524 85.4042V95.1227C153.524 96.4605 153.689 97.3735 154.019 97.8615C154.358 98.3495 154.879 98.5936 155.584 98.5936Z" fill="white"/>
<path d="M143.006 79.409H146.472V100.966H143.006V79.409Z" fill="white"/>
<path d="M133.987 81.9838H130.307V79.409H141.119V81.9838H137.453V100.966H133.987V81.9838Z" fill="white"/>
<path d="M124.687 101.156C124.134 101.156 123.527 101.08 122.867 100.929C122.216 100.777 121.596 100.462 121.007 99.9819C120.419 99.5023 119.937 98.7829 119.562 97.8237C119.188 96.856 119 95.5644 119 93.9489V86.3129C119 85.0171 119.125 83.9401 119.375 83.0818C119.634 82.2152 119.968 81.5252 120.378 81.0119C120.798 80.4902 121.257 80.1032 121.757 79.8507C122.265 79.5899 122.769 79.4216 123.269 79.3459C123.777 79.2617 124.246 79.2197 124.674 79.2197C125.851 79.2197 126.784 79.4258 127.47 79.8381C128.157 80.2504 128.648 80.8058 128.942 81.5041C129.246 82.1941 129.397 82.9556 129.397 83.7886C129.397 84.2514 129.357 84.6805 129.277 85.076C129.206 85.4631 129.121 85.8922 129.023 86.3634H126.346V85.3284C126.346 82.964 125.758 81.7818 124.58 81.7818C123.947 81.7818 123.461 82.0427 123.122 82.5643C122.792 83.0776 122.627 84.0242 122.627 85.4042V95.1227C122.627 96.4605 122.792 97.3735 123.122 97.8615C123.461 98.3495 123.982 98.5936 124.687 98.5936C125.178 98.5936 125.584 98.4 125.905 98.013C126.226 97.6175 126.387 96.9864 126.387 96.1198V94.0751H129.424V96.0693C129.424 97.7942 129.018 99.0732 128.206 99.9062C127.395 100.739 126.222 101.156 124.687 101.156Z" fill="white"/>
<path d="M110.222 101.156C109.83 101.156 109.388 101.118 108.897 101.042C108.416 100.975 107.934 100.823 107.452 100.588C106.971 100.344 106.529 99.9777 106.128 99.4897C105.726 98.9932 105.401 98.3285 105.151 97.4955C104.91 96.6625 104.789 95.6107 104.789 94.3401V79.409H108.255V95.11C108.255 96.4479 108.411 97.3651 108.724 97.8615C109.045 98.3495 109.544 98.5936 110.222 98.5936C110.909 98.5936 111.409 98.3495 111.721 97.8615C112.042 97.3651 112.203 96.4479 112.203 95.11V79.409H115.655V94.3401C115.655 95.6107 115.53 96.6625 115.28 97.4955C115.039 98.3285 114.718 98.9932 114.317 99.4897C113.915 99.9777 113.474 100.344 112.992 100.588C112.51 100.823 112.029 100.975 111.547 101.042C111.065 101.118 110.624 101.156 110.222 101.156Z" fill="white"/>
<path d="M94.312 100.966H90.7125V79.409H94.312C94.9633 79.409 95.6323 79.4384 96.3192 79.4973C97.0061 79.5562 97.6662 79.7077 98.2996 79.9517C98.9419 80.1957 99.5173 80.5912 100.026 81.1381C100.534 81.6766 100.936 82.4255 101.23 83.3847C101.533 84.3356 101.685 85.5598 101.685 87.0576V93.3178C101.685 94.8155 101.533 96.044 101.23 97.0033C100.936 97.9625 100.534 98.7156 100.026 99.2625C99.5173 99.801 98.9419 100.192 98.2996 100.436C97.6662 100.672 97.0061 100.819 96.3192 100.878C95.6323 100.937 94.9633 100.966 94.312 100.966ZM94.1782 81.8954V98.48H94.9276C95.7661 98.48 96.4084 98.3369 96.8545 98.0508C97.3094 97.7647 97.6216 97.2515 97.7911 96.511C97.9696 95.7706 98.0588 94.7272 98.0588 93.3809V86.9945C98.0588 85.6398 97.9696 84.5964 97.7911 83.8644C97.6216 83.1239 97.3094 82.6106 96.8545 82.3245C96.4084 82.0385 95.7661 81.8954 94.9276 81.8954H94.1782Z" fill="white"/>
<path d="M81.6669 101.156C81.1138 101.156 80.5072 101.08 79.847 100.929C79.1958 100.777 78.5758 100.462 77.9871 99.9819C77.3983 99.5023 76.9166 98.7829 76.5419 97.8237C76.1672 96.856 75.9799 95.5644 75.9799 93.9489V86.3129C75.9799 85.0171 76.1048 83.9401 76.3546 83.0818C76.6133 82.2152 76.9478 81.5252 77.3582 81.0119C77.7774 80.4902 78.2368 80.1032 78.7364 79.8507C79.2449 79.5899 79.7534 79.4216 80.2619 79.3459C80.7703 79.2617 81.2387 79.2197 81.6669 79.2197C82.0772 79.2197 82.5322 79.2575 83.0318 79.3333C83.5402 79.409 84.0443 79.5731 84.5438 79.8255C85.0434 80.0695 85.4983 80.4482 85.9087 80.9614C86.328 81.4747 86.6625 82.1647 86.9123 83.0313C87.171 83.898 87.3003 84.9919 87.3003 86.3129V93.9489C87.3003 95.5476 87.1041 96.8266 86.7116 97.7858C86.319 98.745 85.8239 99.4686 85.2263 99.9567C84.6286 100.436 84.0086 100.756 83.3663 100.916C82.7329 101.076 82.1664 101.156 81.6669 101.156ZM81.6669 98.5936C82.3538 98.5936 82.8623 98.3495 83.1923 97.8615C83.5224 97.3735 83.6874 96.4605 83.6874 95.1227V85.4042C83.6874 84.0242 83.5224 83.0776 83.1923 82.5643C82.8623 82.0427 82.3538 81.7818 81.6669 81.7818C80.9621 81.7818 80.4403 82.0427 80.1013 82.5643C79.7712 83.0776 79.6062 84.0242 79.6062 85.4042V95.1227C79.6062 96.4605 79.7712 97.3735 80.1013 97.8615C80.4403 98.3495 80.9621 98.5936 81.6669 98.5936Z" fill="white"/>
<path d="M62.291 79.409H66.0511C66.5774 79.409 67.1573 79.4384 67.7906 79.4973C68.424 79.5562 69.0529 79.6909 69.6774 79.9012C70.3018 80.1032 70.8728 80.4271 71.3902 80.8731C71.9076 81.3106 72.3224 81.9122 72.6346 82.6779C72.9558 83.4352 73.1163 84.3987 73.1163 85.5682V86.111C73.1163 89.3421 72.086 91.4204 70.0253 92.346L73.7854 100.966H70.0922L66.9476 92.9013H65.7567V100.966H62.291V79.409ZM66.2117 90.5411C67.4784 90.5411 68.3482 90.2634 68.821 89.7081C69.3027 89.1527 69.5436 88.1514 69.5436 86.7042V85.0003C69.5436 83.8896 69.3161 83.0734 68.8611 82.5517C68.4151 82.03 67.5319 81.7692 66.2117 81.7692H65.7567V90.5411H66.2117Z" fill="white"/>
<path d="M49.2578 79.409H52.7235C53.2498 79.409 53.8252 79.4426 54.4497 79.51C55.083 79.5689 55.712 79.7119 56.3364 79.9391C56.9609 80.1579 57.5318 80.5071 58.0492 80.9867C58.5755 81.4663 58.9948 82.1184 59.307 82.943C59.6192 83.7676 59.7754 84.8152 59.7754 86.0857V86.843C59.7754 88.223 59.6282 89.3715 59.3338 90.2887C59.0483 91.2058 58.6647 91.9421 58.183 92.4974C57.7013 93.0443 57.1616 93.4566 56.5639 93.7343C55.9751 94.0036 55.3774 94.1845 54.7708 94.277C54.1642 94.3612 53.5933 94.4032 53.058 94.4032H52.7235V100.966H49.2578V79.409ZM52.8975 92.0052C54.1553 92.0052 55.0206 91.6518 55.4934 90.945C55.9751 90.2382 56.216 89.0728 56.216 87.4488V85.5051C56.216 84.2262 55.9885 83.2838 55.5335 82.6779C55.0875 82.0721 54.2088 81.7692 52.8975 81.7692H52.7235V92.0052H52.8975Z" fill="white"/>
<path d="M29.1593 79.409H32.9194C33.4458 79.409 34.0256 79.4384 34.659 79.4973C35.2924 79.5562 35.9213 79.6909 36.5457 79.9012C37.1702 80.1032 37.7411 80.4271 38.2585 80.8731C38.7759 81.3106 39.1907 81.9122 39.5029 82.6779C39.8241 83.4352 39.9847 84.3987 39.9847 85.5682V86.111C39.9847 89.3421 38.9543 91.4204 36.8936 92.346L40.6537 100.966H36.9605L33.816 92.9013H32.625V100.966H29.1593V79.409ZM33.08 90.5411C34.3468 90.5411 35.2165 90.2634 35.6893 89.7081C36.171 89.1527 36.4119 88.1514 36.4119 86.7042V85.0003C36.4119 83.8896 36.1844 83.0734 35.7295 82.5517C35.2834 82.03 34.4003 81.7692 33.08 81.7692H32.625V90.5411H33.08Z" fill="white"/>
<path d="M15.6176 96.5994C15.6176 96.1366 15.6444 95.7075 15.6979 95.312C15.7604 94.9165 15.8496 94.4958 15.9655 94.0498H18.6552V95.0091C18.6552 96.1702 18.8425 97.0622 19.2172 97.6848C19.5918 98.2991 20.1672 98.6062 20.9433 98.6062C22.2814 98.6062 22.9505 97.9877 22.9505 96.7508C22.9505 96.2712 22.839 95.7664 22.616 95.2363C22.4019 94.7062 21.9781 94.0583 21.3448 93.2926L17.7319 89.0139C17.0985 88.2398 16.6034 87.4657 16.2465 86.6916C15.8986 85.9174 15.7247 85.055 15.7247 84.1042C15.7247 82.6737 16.193 81.5041 17.1297 80.5954C18.0753 79.6782 19.3822 79.2197 21.0504 79.2197C22.3974 79.2197 23.4545 79.4511 24.2217 79.9138C24.9889 80.3682 25.5286 80.9446 25.8408 81.643C26.162 82.3414 26.3225 83.0566 26.3225 83.7886C26.3225 84.2514 26.2824 84.6805 26.2021 85.076C26.1307 85.4631 26.046 85.8922 25.9479 86.3634H23.2716V85.3284C23.2716 84.1925 23.0798 83.3174 22.6963 82.7032C22.3127 82.0889 21.764 81.7818 21.0504 81.7818C20.3992 81.7818 19.9041 81.9543 19.5651 82.2993C19.235 82.6359 19.07 83.0902 19.07 83.6624C19.07 84.1504 19.177 84.5964 19.3911 85.0003C19.6052 85.3958 19.8773 85.8038 20.2074 86.2246L24.2351 91.0459C24.9755 91.9463 25.5375 92.8045 25.9211 93.6207C26.3136 94.4285 26.5099 95.3288 26.5099 96.3217C26.5099 97.811 26.0059 98.9932 24.9978 99.8683C23.9898 100.735 22.6472 101.168 20.9701 101.168C19.5963 101.168 18.5169 100.95 17.7319 100.512C16.9557 100.066 16.4071 99.4939 16.086 98.7955C15.7737 98.0971 15.6176 97.3651 15.6176 96.5994Z" fill="white"/>
<path d="M1.72803 79.409H4.47116L10.0511 93.5829H10.1314C10.0957 93.1369 10.0466 92.6405 9.98418 92.0935C9.93066 91.5382 9.88159 90.8735 9.83699 90.0993C9.79239 89.3252 9.77008 88.3828 9.77008 87.2721V79.409H12.8477V100.966H10.0779L4.52468 87.1712H4.41763C4.46224 87.676 4.5113 88.2272 4.56483 88.8246C4.61835 89.422 4.66741 90.1751 4.71202 91.0838C4.75662 91.9926 4.77892 93.1748 4.77892 94.6304V100.966H1.72803V79.409Z" fill="white"/>
</svg>
