<svg width="48" height="48" viewBox="0 0 48 48" fill="none" xmlns="http://www.w3.org/2000/svg">
<path d="M0 24C0 10.7452 10.7452 0 24 0C37.2549 0 48 10.7452 48 24C48 37.2549 37.2549 48 24 48C10.7452 48 0 37.2549 0 24Z" fill="#050630"/>
<path d="M24.0002 29.3333C29.8912 29.3333 34.6668 24.5577 34.6668 18.6667C34.6668 12.7756 29.8912 8 24.0002 8C18.1091 8 13.3335 12.7756 13.3335 18.6667C13.3335 24.5577 18.1091 29.3333 24.0002 29.3333Z" fill="#DFC7F8"/>
<path fill-rule="evenodd" clip-rule="evenodd" d="M40.5892 40.6565C40.7444 40.9136 40.697 41.2427 40.4788 41.4485C36.1799 45.5099 30.381 48 24.0002 48C17.6196 48 11.8205 45.5101 7.52168 41.4488C7.30355 41.2427 7.25619 40.9139 7.41131 40.6568C10.5158 35.5147 16.7792 32 24.0004 32C31.2212 32 37.4847 35.5144 40.5892 40.6565Z" fill="#DFC7F8"/>
</svg>
