<svg width="28" height="28" viewBox="0 0 28 28" fill="none" xmlns="http://www.w3.org/2000/svg">
<path d="M28.2786 6.6016C28.9673 5.84724 28.4083 4.6667 27.3625 4.6667H22.9391L24.3998 2.33335H27.3625C28.0348 2.33335 28.5798 1.81103 28.5798 1.1667C28.5798 0.52232 28.0348 0 27.3625 0H23.7106C23.283 0 22.8868 0.215031 22.6668 0.566398L20.0999 4.66665H12.6331C12.0692 2.00419 9.61299 0 6.66861 0C3.3073 0 0.582153 2.61182 0.582153 5.83335C0.582153 9.05488 3.3073 11.6667 6.66861 11.6667C7.40703 11.6667 8.12634 11.533 8.80712 11.2808L12.755 15.605V21.5541C12.755 22.3069 12.3852 23.0158 11.7569 23.4675L8.37278 25.9C7.43693 26.5727 7.9333 28 9.10315 28H23.7106C24.8805 28 25.3768 26.5727 24.441 25.9L21.0569 23.4675C20.4286 23.0158 20.0588 22.307 20.0588 21.5541V15.605L28.2786 6.6016ZM7.01383 9.31651C6.89942 9.32766 6.78428 9.3333 6.66856 9.3333C4.65187 9.3333 3.01669 7.76612 3.01669 5.8333C3.01669 3.90048 4.65187 2.3333 6.66856 2.3333C8.25843 2.3333 9.61122 3.30728 10.1126 4.66665H5.45129C4.40543 4.66665 3.84646 5.84724 4.53518 6.60155L7.01383 9.31651ZM19.5962 25.3341L20.0588 25.6666H12.7551L13.2177 25.3341C14.4591 24.4418 15.1897 23.0414 15.1897 21.5541V15.1666C15.1897 14.8841 15.0826 14.6111 14.8885 14.3984L8.13393 7H11.5377H18.6392L15.3631 12.2331C15.0172 12.7856 15.2042 13.5022 15.7806 13.8338C16.3571 14.1653 17.1048 13.9861 17.4507 13.4336L21.4784 7H24.6799L17.9254 14.3984C17.7312 14.6111 17.6242 14.8841 17.6242 15.1666V21.5541C17.6242 23.0414 18.3548 24.4418 19.5962 25.3341Z" fill="white"/>
</svg>
