<svg width="24" height="24" viewBox="0 0 24 24" fill="none" xmlns="http://www.w3.org/2000/svg">
<path d="M23.3283 11.1717L12.8283 0.671667C12.7199 0.562317 12.5908 0.475523 12.4487 0.416293C12.3065 0.357063 12.154 0.326569 12 0.326569C11.846 0.326569 11.6935 0.357063 11.5513 0.416293C11.4092 0.475523 11.2801 0.562317 11.1717 0.671667L0.671667 11.1717C0.509783 11.3357 0.40012 11.5441 0.356517 11.7704C0.312914 11.9967 0.337324 12.2309 0.426667 12.4433C0.51419 12.6564 0.662821 12.8388 0.853828 12.9675C1.04483 13.0962 1.26967 13.1655 1.5 13.1667H2.66667V21.6833C2.68794 22.2291 2.92452 22.7441 3.32465 23.1158C3.72478 23.4875 4.25586 23.6856 4.80167 23.6667H7.91667C8.22609 23.6667 8.52283 23.5438 8.74162 23.325C8.96042 23.1062 9.08333 22.8094 9.08333 22.5V16.7833C9.08333 16.4739 9.20625 16.1772 9.42504 15.9584C9.64384 15.7396 9.94058 15.6167 10.25 15.6167H13.75C14.0594 15.6167 14.3562 15.7396 14.575 15.9584C14.7937 16.1772 14.9167 16.4739 14.9167 16.7833V22.5C14.9167 22.8094 15.0396 23.1062 15.2584 23.325C15.4772 23.5438 15.7739 23.6667 16.0833 23.6667H19.1983C19.7441 23.6856 20.2752 23.4875 20.6753 23.1158C21.0755 22.7441 21.3121 22.2291 21.3333 21.6833V13.1667H22.5C22.7303 13.1655 22.9552 13.0962 23.1462 12.9675C23.3372 12.8388 23.4858 12.6564 23.5733 12.4433C23.6627 12.2309 23.6871 11.9967 23.6435 11.7704C23.5999 11.5441 23.4902 11.3357 23.3283 11.1717Z" fill="white"/>
</svg>
