<svg width="10" height="10" viewBox="0 0 10 10" fill="none" xmlns="http://www.w3.org/2000/svg">
<path d="M4.60166 0.540247C4.71649 0.232292 4.77393 0.078314 4.85388 0.0308975C4.92332 -0.0102992 5.00487 -0.0102992 5.07431 0.0308975C5.15426 0.078314 5.2117 0.232292 5.32653 0.540247L6.24116 2.99315C6.27514 3.08419 6.2921 3.12971 6.31839 3.16457C6.3416 3.19541 6.37002 3.22008 6.40172 3.23697C6.43758 3.25606 6.47905 3.26129 6.56198 3.27175L8.79614 3.55363C9.07663 3.58902 9.21685 3.60671 9.2793 3.68296C9.33351 3.74918 9.35871 3.84191 9.3474 3.93361C9.3344 4.03915 9.22965 4.15198 9.02013 4.37771L7.35122 6.17559C7.28932 6.24229 7.25832 6.27567 7.23873 6.31629C7.22137 6.35228 7.21051 6.39218 7.20688 6.43345C7.20277 6.48011 7.2114 6.52885 7.22871 6.62639L7.69486 9.25348C7.75338 9.58332 7.78265 9.74822 7.74128 9.84273C7.70532 9.92491 7.63935 9.98219 7.56292 9.99766C7.47493 10.0154 7.35276 9.93125 7.10843 9.7628L5.16235 8.42101C5.09013 8.3712 5.05402 8.34636 5.01563 8.33657C4.98165 8.32797 4.94654 8.32797 4.91256 8.33657C4.87417 8.34636 4.83806 8.3712 4.76584 8.42101L2.81977 9.7628C2.57545 9.93125 2.45329 10.0154 2.36529 9.99766C2.28885 9.98219 2.22286 9.92491 2.18693 9.84273C2.14557 9.74822 2.17483 9.58332 2.23335 9.25348L2.69948 6.62639C2.71678 6.52885 2.72543 6.48011 2.72132 6.43345C2.71769 6.39218 2.70684 6.35228 2.68948 6.31629C2.66986 6.27567 2.63889 6.24229 2.57696 6.17559L0.908085 4.37771C0.698567 4.15198 0.593806 4.03915 0.580781 3.93361C0.569472 3.84191 0.594674 3.74918 0.648907 3.68296C0.711344 3.60671 0.85159 3.58902 1.13208 3.55363L3.36624 3.27175C3.44916 3.26129 3.49061 3.25606 3.52647 3.23697C3.55819 3.22008 3.58659 3.19541 3.60983 3.16457C3.63609 3.12971 3.65307 3.08419 3.68702 2.99315L4.60166 0.540247Z" fill="#FCBF49"/>
</svg>
